<svg width="214" height="120" viewBox="0 0 214 120" fill="none" xmlns="http://www.w3.org/2000/svg">
<path d="M138.16 35.422C138.004 35.242 137.834 35.116 137.65 35.044C137.47 34.972 137.278 34.936 137.074 34.936C136.874 34.936 136.692 34.974 136.528 35.05C136.364 35.126 136.222 35.246 136.102 35.41C135.986 35.57 135.896 35.776 135.832 36.028C135.768 36.28 135.736 36.58 135.736 36.928C135.736 37.272 135.762 37.564 135.814 37.804C135.866 38.044 135.94 38.238 136.036 38.386C136.136 38.534 136.256 38.642 136.396 38.71C136.536 38.774 136.692 38.806 136.864 38.806C137.156 38.806 137.4 38.748 137.596 38.632C137.796 38.516 137.984 38.352 138.16 38.14V35.422ZM139.816 31.054V40H138.796C138.584 40 138.448 39.904 138.388 39.712L138.25 39.172C138.126 39.308 137.994 39.432 137.854 39.544C137.718 39.656 137.57 39.754 137.41 39.838C137.25 39.918 137.078 39.98 136.894 40.024C136.71 40.068 136.51 40.09 136.294 40.09C135.962 40.09 135.658 40.02 135.382 39.88C135.106 39.74 134.866 39.536 134.662 39.268C134.462 38.996 134.306 38.664 134.194 38.272C134.082 37.88 134.026 37.432 134.026 36.928C134.026 36.468 134.088 36.04 134.212 35.644C134.34 35.248 134.52 34.906 134.752 34.618C134.984 34.33 135.264 34.104 135.592 33.94C135.92 33.776 136.284 33.694 136.684 33.694C137.02 33.694 137.302 33.744 137.53 33.844C137.762 33.944 137.972 34.08 138.16 34.252V31.054H139.816ZM145.118 36.178C145.118 36.006 145.094 35.842 145.046 35.686C145.002 35.53 144.93 35.392 144.83 35.272C144.73 35.152 144.604 35.058 144.452 34.99C144.3 34.918 144.118 34.882 143.906 34.882C143.51 34.882 143.2 34.994 142.976 35.218C142.752 35.442 142.606 35.762 142.538 36.178H145.118ZM142.514 37.162C142.566 37.742 142.73 38.166 143.006 38.434C143.286 38.702 143.65 38.836 144.098 38.836C144.326 38.836 144.522 38.81 144.686 38.758C144.854 38.702 145 38.642 145.124 38.578C145.252 38.51 145.366 38.45 145.466 38.398C145.57 38.342 145.672 38.314 145.772 38.314C145.9 38.314 146 38.362 146.072 38.458L146.552 39.058C146.376 39.262 146.182 39.432 145.97 39.568C145.758 39.7 145.538 39.806 145.31 39.886C145.082 39.962 144.852 40.014 144.62 40.042C144.388 40.074 144.164 40.09 143.948 40.09C143.516 40.09 143.112 40.02 142.736 39.88C142.364 39.736 142.038 39.526 141.758 39.25C141.482 38.97 141.264 38.624 141.104 38.212C140.944 37.8 140.864 37.322 140.864 36.778C140.864 36.358 140.932 35.962 141.068 35.59C141.208 35.218 141.408 34.894 141.668 34.618C141.928 34.342 142.244 34.124 142.616 33.964C142.988 33.8 143.408 33.718 143.876 33.718C144.272 33.718 144.636 33.782 144.968 33.91C145.304 34.034 145.592 34.216 145.832 34.456C146.076 34.696 146.264 34.992 146.396 35.344C146.532 35.692 146.6 36.09 146.6 36.538C146.6 36.662 146.594 36.764 146.582 36.844C146.57 36.924 146.55 36.988 146.522 37.036C146.494 37.084 146.456 37.118 146.408 37.138C146.36 37.154 146.298 37.162 146.222 37.162H142.514ZM151.473 35.086C151.429 35.154 151.383 35.204 151.335 35.236C151.291 35.264 151.229 35.278 151.149 35.278C151.069 35.278 150.987 35.258 150.903 35.218C150.819 35.178 150.725 35.136 150.621 35.092C150.517 35.044 150.397 35 150.261 34.96C150.129 34.92 149.975 34.9 149.799 34.9C149.531 34.9 149.323 34.956 149.175 35.068C149.027 35.176 148.953 35.32 148.953 35.5C148.953 35.624 148.995 35.728 149.079 35.812C149.163 35.896 149.273 35.97 149.409 36.034C149.549 36.094 149.707 36.152 149.883 36.208C150.059 36.26 150.239 36.318 150.423 36.382C150.611 36.446 150.793 36.52 150.969 36.604C151.145 36.688 151.301 36.794 151.437 36.922C151.577 37.046 151.689 37.198 151.773 37.378C151.857 37.554 151.899 37.768 151.899 38.02C151.899 38.32 151.843 38.598 151.731 38.854C151.623 39.106 151.463 39.324 151.251 39.508C151.039 39.692 150.775 39.836 150.459 39.94C150.143 40.044 149.779 40.096 149.367 40.096C149.155 40.096 148.945 40.076 148.737 40.036C148.529 40 148.331 39.948 148.143 39.88C147.955 39.808 147.779 39.726 147.615 39.634C147.451 39.542 147.309 39.442 147.189 39.334L147.573 38.716C147.617 38.644 147.671 38.588 147.735 38.548C147.803 38.508 147.889 38.488 147.993 38.488C148.093 38.488 148.185 38.514 148.269 38.566C148.353 38.614 148.447 38.668 148.551 38.728C148.655 38.784 148.777 38.838 148.917 38.89C149.061 38.938 149.239 38.962 149.451 38.962C149.611 38.962 149.749 38.944 149.865 38.908C149.981 38.872 150.075 38.824 150.147 38.764C150.219 38.7 150.271 38.63 150.303 38.554C150.339 38.474 150.357 38.392 150.357 38.308C150.357 38.172 150.313 38.062 150.225 37.978C150.141 37.89 150.029 37.814 149.889 37.75C149.753 37.686 149.595 37.628 149.415 37.576C149.235 37.524 149.051 37.466 148.863 37.402C148.679 37.338 148.497 37.262 148.317 37.174C148.141 37.086 147.983 36.976 147.843 36.844C147.707 36.708 147.595 36.542 147.507 36.346C147.423 36.15 147.381 35.912 147.381 35.632C147.381 35.376 147.431 35.134 147.531 34.906C147.631 34.674 147.781 34.47 147.981 34.294C148.181 34.118 148.429 33.978 148.725 33.874C149.025 33.77 149.371 33.718 149.763 33.718C150.203 33.718 150.603 33.79 150.963 33.934C151.323 34.078 151.619 34.266 151.851 34.498L151.473 35.086ZM154.64 33.814V40H152.984V33.814H154.64ZM154.838 32.056C154.838 32.196 154.81 32.326 154.754 32.446C154.698 32.566 154.622 32.672 154.526 32.764C154.434 32.856 154.324 32.928 154.196 32.98C154.072 33.032 153.938 33.058 153.794 33.058C153.658 33.058 153.528 33.032 153.404 32.98C153.284 32.928 153.178 32.856 153.086 32.764C152.994 32.672 152.92 32.566 152.864 32.446C152.812 32.326 152.786 32.196 152.786 32.056C152.786 31.916 152.812 31.786 152.864 31.666C152.92 31.542 152.994 31.434 153.086 31.342C153.178 31.25 153.284 31.178 153.404 31.126C153.528 31.074 153.658 31.048 153.794 31.048C153.938 31.048 154.072 31.074 154.196 31.126C154.324 31.178 154.434 31.25 154.526 31.342C154.622 31.434 154.698 31.542 154.754 31.666C154.81 31.786 154.838 31.916 154.838 32.056ZM158.357 36.676C158.697 36.676 158.947 36.59 159.107 36.418C159.271 36.246 159.353 36.024 159.353 35.752C159.353 35.468 159.271 35.246 159.107 35.086C158.947 34.922 158.697 34.84 158.357 34.84C158.017 34.84 157.767 34.922 157.607 35.086C157.447 35.246 157.367 35.468 157.367 35.752C157.367 36.02 157.447 36.242 157.607 36.418C157.771 36.59 158.021 36.676 158.357 36.676ZM159.923 40.252C159.923 40.144 159.889 40.056 159.821 39.988C159.753 39.92 159.661 39.866 159.545 39.826C159.433 39.786 159.299 39.758 159.143 39.742C158.987 39.722 158.821 39.708 158.645 39.7C158.469 39.688 158.287 39.678 158.099 39.67C157.911 39.662 157.727 39.648 157.547 39.628C157.407 39.712 157.291 39.812 157.199 39.928C157.111 40.04 157.067 40.168 157.067 40.312C157.067 40.412 157.089 40.504 157.133 40.588C157.181 40.672 157.259 40.744 157.367 40.804C157.475 40.864 157.617 40.91 157.793 40.942C157.969 40.978 158.189 40.996 158.453 40.996C158.725 40.996 158.955 40.978 159.143 40.942C159.331 40.906 159.483 40.854 159.599 40.786C159.715 40.722 159.797 40.644 159.845 40.552C159.897 40.46 159.923 40.36 159.923 40.252ZM161.567 34.018V34.624C161.567 34.72 161.539 34.796 161.483 34.852C161.431 34.908 161.343 34.95 161.219 34.978L160.715 35.08C160.783 35.276 160.817 35.486 160.817 35.71C160.817 36.018 160.753 36.296 160.625 36.544C160.501 36.788 160.329 36.998 160.109 37.174C159.889 37.346 159.629 37.48 159.329 37.576C159.029 37.668 158.705 37.714 158.357 37.714C158.137 37.714 157.931 37.696 157.739 37.66C157.571 37.764 157.487 37.878 157.487 38.002C157.487 38.118 157.543 38.202 157.655 38.254C157.771 38.306 157.921 38.344 158.105 38.368C158.293 38.388 158.505 38.402 158.741 38.41C158.981 38.414 159.223 38.426 159.467 38.446C159.715 38.466 159.957 38.502 160.193 38.554C160.433 38.602 160.645 38.684 160.829 38.8C161.017 38.912 161.167 39.062 161.279 39.25C161.395 39.438 161.453 39.68 161.453 39.976C161.453 40.252 161.385 40.52 161.249 40.78C161.113 41.04 160.915 41.272 160.655 41.476C160.399 41.68 160.083 41.844 159.707 41.968C159.331 42.092 158.903 42.154 158.423 42.154C157.947 42.154 157.533 42.108 157.181 42.016C156.833 41.928 156.543 41.808 156.311 41.656C156.083 41.508 155.913 41.336 155.801 41.14C155.689 40.944 155.633 40.74 155.633 40.528C155.633 40.252 155.717 40.018 155.885 39.826C156.053 39.634 156.285 39.48 156.581 39.364C156.425 39.276 156.299 39.162 156.203 39.022C156.111 38.878 156.065 38.692 156.065 38.464C156.065 38.28 156.131 38.086 156.263 37.882C156.399 37.678 156.607 37.508 156.887 37.372C156.571 37.204 156.321 36.98 156.137 36.7C155.953 36.416 155.861 36.086 155.861 35.71C155.861 35.402 155.923 35.124 156.047 34.876C156.175 34.628 156.351 34.418 156.575 34.246C156.799 34.07 157.063 33.936 157.367 33.844C157.671 33.752 158.001 33.706 158.357 33.706C158.885 33.706 159.351 33.81 159.755 34.018H161.567ZM163.964 34.534C164.088 34.414 164.216 34.304 164.348 34.204C164.484 34.104 164.626 34.018 164.774 33.946C164.926 33.874 165.088 33.818 165.26 33.778C165.436 33.738 165.626 33.718 165.83 33.718C166.166 33.718 166.464 33.776 166.724 33.892C166.984 34.008 167.202 34.17 167.378 34.378C167.558 34.586 167.692 34.834 167.78 35.122C167.872 35.41 167.918 35.726 167.918 36.07V40H166.268V36.07C166.268 35.726 166.188 35.46 166.028 35.272C165.868 35.08 165.632 34.984 165.32 34.984C165.088 34.984 164.87 35.034 164.666 35.134C164.462 35.234 164.268 35.374 164.084 35.554V40H162.428V33.814H163.448C163.656 33.814 163.794 33.91 163.862 34.102L163.964 34.534ZM173.161 36.178C173.161 36.006 173.137 35.842 173.089 35.686C173.045 35.53 172.973 35.392 172.873 35.272C172.773 35.152 172.647 35.058 172.495 34.99C172.343 34.918 172.161 34.882 171.949 34.882C171.553 34.882 171.243 34.994 171.019 35.218C170.795 35.442 170.649 35.762 170.581 36.178H173.161ZM170.557 37.162C170.609 37.742 170.773 38.166 171.049 38.434C171.329 38.702 171.693 38.836 172.141 38.836C172.369 38.836 172.565 38.81 172.729 38.758C172.897 38.702 173.043 38.642 173.167 38.578C173.295 38.51 173.409 38.45 173.509 38.398C173.613 38.342 173.715 38.314 173.815 38.314C173.943 38.314 174.043 38.362 174.115 38.458L174.595 39.058C174.419 39.262 174.225 39.432 174.013 39.568C173.801 39.7 173.581 39.806 173.353 39.886C173.125 39.962 172.895 40.014 172.663 40.042C172.431 40.074 172.207 40.09 171.991 40.09C171.559 40.09 171.155 40.02 170.779 39.88C170.407 39.736 170.081 39.526 169.801 39.25C169.525 38.97 169.307 38.624 169.147 38.212C168.987 37.8 168.907 37.322 168.907 36.778C168.907 36.358 168.975 35.962 169.111 35.59C169.251 35.218 169.451 34.894 169.711 34.618C169.971 34.342 170.287 34.124 170.659 33.964C171.031 33.8 171.451 33.718 171.919 33.718C172.315 33.718 172.679 33.782 173.011 33.91C173.347 34.034 173.635 34.216 173.875 34.456C174.119 34.696 174.307 34.992 174.439 35.344C174.575 35.692 174.643 36.09 174.643 36.538C174.643 36.662 174.637 36.764 174.625 36.844C174.613 36.924 174.593 36.988 174.565 37.036C174.537 37.084 174.499 37.118 174.451 37.138C174.403 37.154 174.341 37.162 174.265 37.162H170.557ZM179.492 35.422C179.336 35.242 179.166 35.116 178.982 35.044C178.802 34.972 178.61 34.936 178.406 34.936C178.206 34.936 178.024 34.974 177.86 35.05C177.696 35.126 177.554 35.246 177.434 35.41C177.318 35.57 177.228 35.776 177.164 36.028C177.1 36.28 177.068 36.58 177.068 36.928C177.068 37.272 177.094 37.564 177.146 37.804C177.198 38.044 177.272 38.238 177.368 38.386C177.468 38.534 177.588 38.642 177.728 38.71C177.868 38.774 178.024 38.806 178.196 38.806C178.488 38.806 178.732 38.748 178.928 38.632C179.128 38.516 179.316 38.352 179.492 38.14V35.422ZM181.148 31.054V40H180.128C179.916 40 179.78 39.904 179.72 39.712L179.582 39.172C179.458 39.308 179.326 39.432 179.186 39.544C179.05 39.656 178.902 39.754 178.742 39.838C178.582 39.918 178.41 39.98 178.226 40.024C178.042 40.068 177.842 40.09 177.626 40.09C177.294 40.09 176.99 40.02 176.714 39.88C176.438 39.74 176.198 39.536 175.994 39.268C175.794 38.996 175.638 38.664 175.526 38.272C175.414 37.88 175.358 37.432 175.358 36.928C175.358 36.468 175.42 36.04 175.544 35.644C175.672 35.248 175.852 34.906 176.084 34.618C176.316 34.33 176.596 34.104 176.924 33.94C177.252 33.776 177.616 33.694 178.016 33.694C178.352 33.694 178.634 33.744 178.862 33.844C179.094 33.944 179.304 34.08 179.492 34.252V31.054H181.148ZM185.823 40V35.002L185.343 34.918C185.219 34.894 185.117 34.85 185.037 34.786C184.961 34.722 184.923 34.63 184.923 34.51V33.85H185.823V33.442C185.823 33.09 185.877 32.772 185.985 32.488C186.097 32.2 186.255 31.958 186.459 31.762C186.663 31.562 186.913 31.408 187.209 31.3C187.505 31.192 187.839 31.138 188.211 31.138C188.355 31.138 188.491 31.148 188.619 31.168C188.751 31.184 188.883 31.21 189.015 31.246L188.979 32.062C188.971 32.186 188.917 32.268 188.817 32.308C188.721 32.344 188.613 32.362 188.493 32.362C188.325 32.362 188.173 32.38 188.037 32.416C187.905 32.452 187.793 32.514 187.701 32.602C187.609 32.686 187.539 32.802 187.491 32.95C187.443 33.094 187.419 33.274 187.419 33.49V33.85H188.955V35.002H187.473V40H185.823ZM192.37 33.718C192.834 33.718 193.256 33.792 193.636 33.94C194.016 34.088 194.342 34.3 194.614 34.576C194.886 34.848 195.096 35.18 195.244 35.572C195.392 35.964 195.466 36.406 195.466 36.898C195.466 37.39 195.392 37.834 195.244 38.23C195.096 38.622 194.886 38.956 194.614 39.232C194.342 39.508 194.016 39.72 193.636 39.868C193.256 40.016 192.834 40.09 192.37 40.09C191.902 40.09 191.476 40.016 191.092 39.868C190.712 39.72 190.386 39.508 190.114 39.232C189.842 38.956 189.63 38.622 189.478 38.23C189.33 37.834 189.256 37.39 189.256 36.898C189.256 36.406 189.33 35.964 189.478 35.572C189.63 35.18 189.842 34.848 190.114 34.576C190.386 34.3 190.712 34.088 191.092 33.94C191.476 33.792 191.902 33.718 192.37 33.718ZM192.37 38.848C192.842 38.848 193.192 38.686 193.42 38.362C193.648 38.034 193.762 37.548 193.762 36.904C193.762 36.264 193.648 35.782 193.42 35.458C193.192 35.13 192.842 34.966 192.37 34.966C191.886 34.966 191.53 35.13 191.302 35.458C191.074 35.782 190.96 36.264 190.96 36.904C190.96 37.548 191.074 38.034 191.302 38.362C191.53 38.686 191.886 38.848 192.37 38.848ZM198.06 34.834C198.256 34.482 198.482 34.204 198.738 34C198.994 33.796 199.294 33.694 199.638 33.694C199.918 33.694 200.146 33.76 200.322 33.892L200.214 35.116C200.194 35.196 200.162 35.252 200.118 35.284C200.078 35.312 200.022 35.326 199.95 35.326C199.886 35.326 199.794 35.318 199.674 35.302C199.554 35.282 199.442 35.272 199.338 35.272C199.186 35.272 199.05 35.294 198.93 35.338C198.814 35.382 198.71 35.444 198.618 35.524C198.526 35.604 198.442 35.702 198.366 35.818C198.294 35.934 198.226 36.066 198.162 36.214V40H196.506V33.814H197.484C197.652 33.814 197.768 33.844 197.832 33.904C197.896 33.964 197.942 34.068 197.97 34.216L198.06 34.834Z" fill="black"/>
<path d="M134.217 63.735L131.862 57.075C131.722 56.725 131.572 56.315 131.412 55.845C131.262 55.375 131.117 54.865 130.977 54.315C130.837 54.875 130.687 55.395 130.527 55.875C130.377 56.345 130.232 56.755 130.092 57.105L127.752 63.735H134.217ZM141.777 72H138.282C137.892 72 137.572 71.91 137.322 71.73C137.082 71.54 136.902 71.3 136.782 71.01L135.312 66.855H126.642L125.172 71.01C125.072 71.26 124.897 71.49 124.647 71.7C124.397 71.9 124.082 72 123.702 72H120.177L128.682 50.235H133.287L141.777 72ZM155.282 63.735L152.927 57.075C152.787 56.725 152.637 56.315 152.477 55.845C152.327 55.375 152.182 54.865 152.042 54.315C151.902 54.875 151.752 55.395 151.592 55.875C151.442 56.345 151.297 56.755 151.157 57.105L148.817 63.735H155.282ZM162.842 72H159.347C158.957 72 158.637 71.91 158.387 71.73C158.147 71.54 157.967 71.3 157.847 71.01L156.377 66.855H147.707L146.237 71.01C146.137 71.26 145.962 71.49 145.712 71.7C145.462 71.9 145.147 72 144.767 72H141.242L149.747 50.235H154.352L162.842 72ZM176.646 54.405C176.506 54.635 176.361 54.805 176.211 54.915C176.071 55.015 175.886 55.065 175.656 55.065C175.436 55.065 175.196 54.99 174.936 54.84C174.686 54.68 174.391 54.51 174.051 54.33C173.711 54.15 173.321 53.985 172.881 53.835C172.441 53.675 171.926 53.595 171.336 53.595C170.296 53.595 169.516 53.83 168.996 54.3C168.476 54.76 168.216 55.365 168.216 56.115C168.216 56.595 168.356 56.995 168.636 57.315C168.926 57.625 169.301 57.895 169.761 58.125C170.231 58.355 170.761 58.56 171.351 58.74C171.941 58.92 172.546 59.12 173.166 59.34C173.786 59.55 174.391 59.8 174.981 60.09C175.571 60.38 176.096 60.745 176.556 61.185C177.026 61.625 177.401 62.165 177.681 62.805C177.971 63.435 178.116 64.205 178.116 65.115C178.116 66.105 177.941 67.035 177.591 67.905C177.251 68.765 176.756 69.52 176.106 70.17C175.456 70.81 174.651 71.315 173.691 71.685C172.741 72.055 171.661 72.24 170.451 72.24C169.761 72.24 169.071 72.17 168.381 72.03C167.701 71.89 167.041 71.695 166.401 71.445C165.771 71.195 165.176 70.895 164.616 70.545C164.056 70.195 163.566 69.805 163.146 69.375L164.466 67.245C164.576 67.085 164.721 66.955 164.901 66.855C165.081 66.745 165.271 66.69 165.471 66.69C165.741 66.69 166.026 66.79 166.326 66.99C166.626 67.19 166.971 67.41 167.361 67.65C167.751 67.89 168.201 68.11 168.711 68.31C169.231 68.51 169.851 68.61 170.571 68.61C171.621 68.61 172.431 68.37 173.001 67.89C173.581 67.41 173.871 66.695 173.871 65.745C173.871 65.195 173.726 64.75 173.436 64.41C173.156 64.07 172.786 63.785 172.326 63.555C171.866 63.325 171.341 63.13 170.751 62.97C170.161 62.8 169.556 62.615 168.936 62.415C168.316 62.215 167.711 61.975 167.121 61.695C166.531 61.415 166.006 61.045 165.546 60.585C165.086 60.125 164.711 59.555 164.421 58.875C164.141 58.195 164.001 57.35 164.001 56.34C164.001 55.53 164.161 54.745 164.481 53.985C164.801 53.225 165.271 52.55 165.891 51.96C166.511 51.37 167.271 50.895 168.171 50.535C169.081 50.175 170.121 49.995 171.291 49.995C172.601 49.995 173.811 50.2 174.921 50.61C176.041 51.01 176.986 51.57 177.756 52.29L176.646 54.405ZM185.91 53.76V59.355H193.17V62.76H185.91V68.475H195.24V72H181.38V50.235H195.24V53.76H185.91ZM203.136 53.76V59.355H210.396V62.76H203.136V68.475H212.466V72H198.606V50.235H212.466V53.76H203.136Z" fill="black"/>
<path d="M83.9296 60C83.9296 75.8617 81.016 90.1009 76.4108 100.281C71.7015 110.691 65.7088 115.923 60 115.923C54.2912 115.923 48.2985 110.691 43.5892 100.281C38.984 90.1009 36.0704 75.8617 36.0704 60C36.0704 44.1383 38.984 29.8991 43.5892 19.7189C48.2985 9.30891 54.2912 4.07675 60 4.07675C65.7088 4.07675 71.7015 9.30891 76.4108 19.7189C81.016 29.8991 83.9296 44.1383 83.9296 60Z" stroke="black" stroke-width="5"/>
<path d="M60 36.0704C75.8617 36.0704 90.1009 38.984 100.281 43.5892C110.691 48.2985 115.923 54.2912 115.923 60C115.923 65.7088 110.691 71.7015 100.281 76.4108C90.1009 81.016 75.8617 83.9296 60 83.9296C44.1383 83.9296 29.8991 81.016 19.7189 76.4108C9.30891 71.7015 4.07675 65.7088 4.07675 60C4.07675 54.2912 9.30891 48.2985 19.7189 43.5892C29.8991 38.984 44.1383 36.0704 60 36.0704Z" stroke="black" stroke-width="5"/>
<path d="M43.0792 43.0792C54.2952 31.8633 66.424 23.8548 76.8788 19.9128C87.5698 15.8818 95.507 16.4196 99.5437 20.4563C103.58 24.493 104.118 32.4302 100.087 43.1212C96.1452 53.576 88.1367 65.7048 76.9208 76.9208C65.7048 88.1367 53.576 96.1452 43.1211 100.087C32.4302 104.118 24.493 103.58 20.4563 99.5437C16.4196 95.507 15.8818 87.5698 19.9128 76.8789C23.8548 66.424 31.8633 54.2952 43.0792 43.0792Z" stroke="black" stroke-width="5"/>
<path d="M76.9208 43.0792C88.1367 54.2952 96.1452 66.424 100.087 76.8788C104.118 87.5698 103.58 95.507 99.5437 99.5437C95.507 103.58 87.5698 104.118 76.8788 100.087C66.424 96.1452 54.2952 88.1367 43.0792 76.9208C31.8633 65.7048 23.8548 53.576 19.9128 43.1211C15.8818 32.4302 16.4196 24.493 20.4563 20.4563C24.493 16.4196 32.4302 15.8818 43.1211 19.9128C53.576 23.8548 65.7048 31.8633 76.9208 43.0792Z" stroke="black" stroke-width="5"/>
</svg>
