<svg width="195" height="120" viewBox="0 0 195 120" fill="none" xmlns="http://www.w3.org/2000/svg">
<path d="M57.1468 8.78116C58.0449 6.01723 61.9551 6.01722 62.8532 8.78115L72.7973 39.386C73.1989 40.6221 74.3508 41.459 75.6505 41.459H107.83C110.737 41.459 111.945 45.1778 109.594 46.886L83.5596 65.8009C82.5082 66.5648 82.0682 67.9189 82.4698 69.155L92.4139 99.7599C93.312 102.524 90.1486 104.822 87.7974 103.114L61.7634 84.1991C60.7119 83.4352 59.2881 83.4352 58.2366 84.1991L32.2026 103.114C29.8514 104.822 26.688 102.524 27.5861 99.7599L37.5302 69.155C37.9318 67.9189 37.4918 66.5648 36.4404 65.8009L10.4063 46.886C8.05517 45.1778 9.26349 41.459 12.1697 41.459H44.3495C45.6492 41.459 46.8011 40.6221 47.2027 39.386L57.1468 8.78116Z" fill="black"/>
<path d="M108.754 63.475C108.187 63.325 107.596 63.25 106.979 63.25C106.362 63.25 105.862 63.4083 105.479 63.725C105.112 64.025 104.929 64.4583 104.929 65.025C104.929 65.575 105.071 66.0083 105.354 66.325C105.637 66.6417 106.196 66.9167 107.029 67.15L109.254 67.8C110.454 68.15 111.404 68.7 112.104 69.45C112.821 70.1833 113.179 71.2667 113.179 72.7C113.179 74.4 112.562 75.7417 111.329 76.725C110.112 77.7083 108.596 78.2 106.779 78.2C105.779 78.2 104.746 78.075 103.679 77.825C102.629 77.5583 101.754 77.1917 101.054 76.725C101.054 76.625 101.054 76.4333 101.054 76.15C101.054 75.8667 101.112 75.3833 101.229 74.7C101.346 74.0167 101.512 73.4583 101.729 73.025H104.104C104.371 73.5417 104.529 74.2333 104.579 75.1C105.162 75.35 105.837 75.475 106.604 75.475C107.387 75.475 108.029 75.2917 108.529 74.925C109.029 74.5583 109.279 74.0333 109.279 73.35C109.279 73.0333 109.254 72.775 109.204 72.575C109.154 72.3583 108.996 72.1333 108.729 71.9C108.479 71.65 108.112 71.45 107.629 71.3L105.054 70.55C102.437 69.8 101.129 68.1333 101.129 65.55C101.129 64.0333 101.679 62.825 102.779 61.925C103.879 61.0083 105.312 60.55 107.079 60.55C108.862 60.55 110.604 60.95 112.304 61.75C112.304 61.85 112.304 62.0417 112.304 62.325C112.304 62.6083 112.246 63.0917 112.129 63.775C112.012 64.4583 111.846 65.0167 111.629 65.45H109.254C108.971 65.05 108.804 64.3917 108.754 63.475ZM126.156 60.75V65.1L124.306 65.325C123.923 64.9917 123.614 64.375 123.381 63.475H119.481V68.025H122.956C123.156 67.525 123.364 67.175 123.581 66.975L125.156 67.15V71.6L123.581 71.8C123.364 71.6333 123.156 71.2833 122.956 70.75H119.481V74.9C120.598 75.15 121.406 75.4917 121.906 75.925L121.656 78H114.756L114.506 75.925C114.723 75.6417 115.181 75.3667 115.881 75.1V63.675C115.198 63.425 114.739 63.1417 114.506 62.825L114.756 60.75H126.156ZM135.292 63.475C134.725 63.325 134.134 63.25 133.517 63.25C132.9 63.25 132.4 63.4083 132.017 63.725C131.65 64.025 131.467 64.4583 131.467 65.025C131.467 65.575 131.609 66.0083 131.892 66.325C132.175 66.6417 132.734 66.9167 133.567 67.15L135.792 67.8C136.992 68.15 137.942 68.7 138.642 69.45C139.359 70.1833 139.717 71.2667 139.717 72.7C139.717 74.4 139.1 75.7417 137.867 76.725C136.65 77.7083 135.134 78.2 133.317 78.2C132.317 78.2 131.284 78.075 130.217 77.825C129.167 77.5583 128.292 77.1917 127.592 76.725C127.592 76.625 127.592 76.4333 127.592 76.15C127.592 75.8667 127.65 75.3833 127.767 74.7C127.884 74.0167 128.05 73.4583 128.267 73.025H130.642C130.909 73.5417 131.067 74.2333 131.117 75.1C131.7 75.35 132.375 75.475 133.142 75.475C133.925 75.475 134.567 75.2917 135.067 74.925C135.567 74.5583 135.817 74.0333 135.817 73.35C135.817 73.0333 135.792 72.775 135.742 72.575C135.692 72.3583 135.534 72.1333 135.267 71.9C135.017 71.65 134.65 71.45 134.167 71.3L131.592 70.55C128.975 69.8 127.667 68.1333 127.667 65.55C127.667 64.0333 128.217 62.825 129.317 61.925C130.417 61.0083 131.85 60.55 133.617 60.55C135.4 60.55 137.142 60.95 138.842 61.75C138.842 61.85 138.842 62.0417 138.842 62.325C138.842 62.6083 138.784 63.0917 138.667 63.775C138.55 64.4583 138.384 65.0167 138.167 65.45H135.792C135.509 65.05 135.342 64.3917 135.292 63.475ZM150.349 78H144.499L144.249 75.925C144.465 75.6417 144.924 75.3667 145.624 75.1V72.225L141.549 63.75C140.765 63.4833 140.232 63.175 139.949 62.825L140.174 60.875V60.85L140.199 60.75H146.049L146.299 62.825C146.099 63.1083 145.715 63.3583 145.149 63.575L145.999 65.5C146.482 66.6 146.899 67.6917 147.249 68.775L147.424 69.275H147.799C148.149 68.0583 148.607 66.8 149.174 65.5L149.974 63.675C149.307 63.4083 148.857 63.125 148.624 62.825L148.874 60.75H154.574L154.824 62.825C154.49 63.2083 153.94 63.525 153.174 63.775L149.224 72.225V75.1C149.89 75.3667 150.349 75.6417 150.599 75.925L150.349 78Z" fill="black"/>
</svg>
