<svg width="436" height="100" viewBox="0 0 436 100" fill="none" xmlns="http://www.w3.org/2000/svg">
<rect width="100" height="100" rx="50" fill="#A9D6FF"/>
<rect x="168" width="100" height="100" rx="50" fill="#7DC1FF"/>
<rect x="336" width="100" height="100" rx="50" fill="#5CB1FF"/>
<path d="M44.6318 70V69L48.1318 68.5V31.5L44.6318 31V30H53.1318V68.5L56.6318 69V70H44.6318Z" fill="black"/>
<path d="M205.068 66.15L215.618 55.4C218.385 52.5333 220.485 49.75 221.918 47.05C223.385 44.3167 224.118 41.5 224.118 38.6C224.118 35.6667 223.485 33.5333 222.218 32.2C220.985 30.8333 219.301 30.15 217.168 30.15C215.501 30.15 214.051 30.6 212.818 31.5C211.585 32.4 210.968 33.5833 210.968 35.05C210.968 36.8167 211.851 38.1333 213.618 39C213.618 40.2 213.251 41.1167 212.518 41.75C211.785 42.3833 210.918 42.7 209.918 42.7C208.851 42.7 207.935 42.3167 207.168 41.55C206.401 40.75 206.018 39.6667 206.018 38.3C206.018 36.5 206.568 34.9 207.668 33.5C208.768 32.0667 210.235 30.9667 212.068 30.2C213.901 29.4 215.868 29 217.968 29C222.035 29 225.051 29.9667 227.018 31.9C228.985 33.8 229.968 36.3167 229.968 39.45C229.968 41.35 229.568 43.1 228.768 44.7C228.001 46.2667 227.068 47.6333 225.968 48.8C224.901 49.9667 223.435 51.3667 221.568 53L220.168 54.2L208.218 64.75H226.868L228.918 57.35H230.218V70H205.068V66.15Z" fill="black"/>
<path d="M383.347 71C381.28 71 379.38 70.6 377.647 69.8C375.947 69 374.597 67.9167 373.597 66.55C372.597 65.1833 372.097 63.65 372.097 61.95C372.097 60.5833 372.48 59.5167 373.247 58.75C374.014 57.95 374.93 57.55 375.997 57.55C376.997 57.55 377.864 57.8667 378.597 58.5C379.33 59.1333 379.697 60.05 379.697 61.25C377.93 62.1167 377.047 63.45 377.047 65.25C377.047 66.6167 377.614 67.7333 378.747 68.6C379.914 69.4333 381.447 69.85 383.347 69.85C385.747 69.85 387.697 68.95 389.197 67.15C390.697 65.35 391.447 62.8333 391.447 59.6C391.447 56.1 390.447 53.4 388.447 51.5C386.447 49.5667 383.497 48.4833 379.597 48.25V47.15C383.097 46.95 385.814 46.0167 387.747 44.35C389.714 42.65 390.697 40.3667 390.697 37.5C390.697 35.2667 390.08 33.4833 388.847 32.15C387.647 30.8167 386.03 30.15 383.997 30.15C382.164 30.15 380.714 30.4667 379.647 31.1C378.614 31.7 378.097 32.55 378.097 33.65C378.097 35.4167 378.93 36.6833 380.597 37.45C380.597 38.5833 380.247 39.4667 379.547 40.1C378.88 40.7 378.064 41 377.097 41C376.097 41 375.23 40.6167 374.497 39.85C373.764 39.0833 373.397 38.0667 373.397 36.8C373.397 35.3 373.914 33.9667 374.947 32.8C375.98 31.6 377.347 30.6667 379.047 30C380.78 29.3333 382.614 29 384.547 29C388.347 29 391.314 29.7667 393.447 31.3C395.58 32.8333 396.647 34.9833 396.647 37.75C396.647 40.65 395.597 42.9 393.497 44.5C391.43 46.0667 388.414 47.1167 384.447 47.65V47.8C388.614 48 391.964 49.1167 394.497 51.15C397.064 53.15 398.347 55.9667 398.347 59.6C398.347 61.6333 397.78 63.5167 396.647 65.25C395.547 66.9833 393.864 68.3833 391.597 69.45C389.364 70.4833 386.614 71 383.347 71Z" fill="black"/>
<path d="M155 49.5L147.5 45.1699L147.5 53.8301L155 49.5ZM114 50.25L148.25 50.25L148.25 48.75L114 48.75L114 50.25Z" fill="#004E97"/>
<path d="M323 49.5L315.5 45.1699L315.5 53.8301L323 49.5ZM282 50.25L316.25 50.25L316.25 48.75L282 48.75L282 50.25Z" fill="#004E97"/>
</svg>
